<?xml version="1.0" encoding="UTF-8"?>
<svg id="Layer_2" data-name="Layer 2" xmlns="http://www.w3.org/2000/svg" viewBox="0 0 102.83 49.36">
  <defs>
    <style>
      .cls-1 {
        fill: none;
        stroke: #fff;
        stroke-width: 4px;
      }
    </style>
  </defs>
  <g id="Layer_1-2" data-name="Layer 1">
    <g id="g823">
      <path id="path7" class="cls-1" d="m1.41,42.18c3.32-3.31,7.81-5.18,12.5-5.18s9.19,1.87,12.5,5.18c3.32,3.32,7.81,5.18,12.5,5.18s9.19-1.86,12.5-5.18c3.32-3.31,7.81-5.18,12.5-5.18s9.19,1.87,12.5,5.18c3.32,3.32,7.81,5.18,12.5,5.18s9.19-1.86,12.5-5.18"/>
      <path id="path9" class="cls-1" d="m1.41,7.18c3.32-3.31,7.81-5.18,12.5-5.18s9.19,1.87,12.5,5.18c3.32,3.32,7.81,5.18,12.5,5.18s9.19-1.86,12.5-5.18c3.32-3.31,7.81-5.18,12.5-5.18s9.19,1.87,12.5,5.18c3.32,3.32,7.81,5.18,12.5,5.18s9.19-1.86,12.5-5.18"/>
    </g>
  </g>
</svg>