<?xml version="1.0" encoding="UTF-8"?>
<svg id="Layer_2" data-name="Layer 2" xmlns="http://www.w3.org/2000/svg" xmlns:xlink="http://www.w3.org/1999/xlink" viewBox="0 0 100 100">
  <defs>
    <style>
      .cls-1, .cls-2 {
        fill: none;
      }

      .cls-3 {
        clip-path: url(#clippath);
      }

      .cls-2 {
        stroke: #fff;
        stroke-miterlimit: 10;
        stroke-width: 4px;
      }
    </style>
    <clipPath id="clippath">
      <rect class="cls-1" width="100" height="100"/>
    </clipPath>
  </defs>
  <g id="Layer_1-2" data-name="Layer 1">
    <g id="surface1">
      <g class="cls-3">
        <g id="g15">
          <path id="path7" class="cls-2" d="m91.67,50c0-23.01-18.65-41.67-41.67-41.67-11.05,0-21.65,4.39-29.46,12.2"/>
          <path id="path9" class="cls-2" d="m91.67,50c0-7.67-6.22-13.89-13.89-13.89s-13.89,6.22-13.89,13.89,6.22,13.89,13.89,13.89,13.89-6.22,13.89-13.89Z"/>
          <path id="path11" class="cls-2" d="m8.33,50c0,23.02,18.66,41.67,41.67,41.67,11.05,0,21.65-4.39,29.46-12.2"/>
          <path id="path13" class="cls-2" d="m8.33,50c0,7.67,6.22,13.89,13.89,13.89s13.89-6.22,13.89-13.89-6.21-13.89-13.89-13.89-13.89,6.22-13.89,13.89Z"/>
        </g>
      </g>
    </g>
  </g>
</svg>