<?xml version="1.0" encoding="UTF-8"?>
<svg id="Layer_2" data-name="Layer 2" xmlns="http://www.w3.org/2000/svg" xmlns:xlink="http://www.w3.org/1999/xlink" viewBox="0 0 100 100">
  <defs>
    <style>
      .cls-1, .cls-2 {
        fill: none;
      }

      .cls-3 {
        clip-path: url(#clippath);
      }

      .cls-2 {
        stroke: #fff;
        stroke-miterlimit: 10;
        stroke-width: 4px;
      }
    </style>
    <clipPath id="clippath">
      <rect class="cls-1" width="100" height="100"/>
    </clipPath>
  </defs>
  <g id="Layer_1-2" data-name="Layer 1">
    <g id="surface1">
      <g class="cls-3">
        <g id="g15">
          <path id="path7" class="cls-2" d="m11.38,36.53c-1.95-1.95-3.05-4.6-3.05-7.37s1.1-5.41,3.05-7.37c1.95-1.95,4.61-3.05,7.37-3.05,5.75,0,10.42,4.66,10.42,10.42v41.67"/>
          <path id="path9" class="cls-2" d="m29.17,29.17c0-5.75,4.66-10.42,10.42-10.42s10.42,4.66,10.42,10.42v41.67"/>
          <path id="path11" class="cls-2" d="m50,29.17c0-5.75,4.66-10.42,10.42-10.42s10.42,4.66,10.42,10.42v41.67c0,5.75,4.66,10.42,10.42,10.42"/>
          <path id="path13" class="cls-2" d="m70.83,70.83v-31.25c0-5.75,4.66-10.42,10.42-10.42s10.42,4.66,10.42,10.42c0,17.26-13.99,31.25-31.25,31.25"/>
        </g>
      </g>
    </g>
  </g>
</svg>